<?xml version="1.0" encoding="UTF-8"?><svg id="Layer_1" xmlns="http://www.w3.org/2000/svg" viewBox="0 0 1012.07 443.92"><defs><style>.cls-1,.cls-2{fill:#7db4f7;}.cls-3{fill:#323537;}.cls-2{fill-rule:evenodd;}</style></defs><g><path class="cls-3" d="M331.93,128.57h-48.67c-10.55,0-17.37,6.7-17.37,17.08v97.33c0,.48,.39,.87,.87,.87h4.26c.48,0,.87-.39,.87-.87v-56.2h55.61c.48,0,.87-.39,.87-.87v-3.52c0-.48-.39-.87-.87-.87h-55.61v-35.86c0-7.29,4.36-11.82,11.37-11.82h48.67c.48,0,.87-.39,.87-.87v-3.52c0-.48-.39-.87-.87-.87h0Z"/><path class="cls-3" d="M410.7,200.83c0,1.19-.09,1.61-.14,1.76-.03,0-.09,0-.17,0h-53.23c.16-8.06,2.52-16.01,6.52-21.95,3.41-5.06,9.71-11.1,20.33-11.1s17.07,6.13,20.52,11.27c4.55,6.78,6.17,14.79,6.17,20.01h0Zm-26.69-36.56c-10.43,0-19.05,4.5-24.94,13.02-5,7.23-7.76,16.96-7.79,27.39,0,.04,0,.09,0,.13,0,19.52,10.15,40.53,32.43,40.53,9.47,0,19.19-3.73,26.68-10.24,.18-.16,.29-.39,.3-.63,0-.24-.08-.48-.26-.65l-2.65-2.66c-.31-.31-.81-.34-1.15-.07-7.64,5.95-15.35,8.96-22.91,8.96-17.03,0-26.09-16.03-26.4-32.16h53.09c3.13,0,6.33-.67,6.33-5.59,0-14.71-8.88-38.04-32.71-38.04h0Z"/><path class="cls-3" d="M514.97,164.26c-12.54,0-21.27,6.66-26.61,12.67-4.09-8.52-11.32-12.67-22.06-12.67-11.36,0-20.18,4.68-27.3,9.26-.25,.16-.4,.44-.4,.73v68.73c0,.48,.39,.87,.87,.87h4.26c.48,0,.87-.39,.87-.87v-67.05c3.08-1.79,12-6.41,22-6.41,14.31,0,19.64,8.64,19.64,31.87v41.59c0,.48,.39,.87,.87,.87h4.26c.48,0,.87-.39,.87-.87v-43.95c0-6.47-.62-11.97-1.83-16.37,3.83-5.61,13.6-13.14,22.65-13.14,15.18,0,20.82,8.64,20.82,31.87v41.59c0,.48,.39,.87,.87,.87h4.26c.48,0,.87-.39,.87-.87v-43.95c0-23.4-8.15-34.77-24.9-34.77h0Z"/><path class="cls-3" d="M569.24,139.19c-2.55,0-4.55,2-4.55,4.55s2,4.55,4.55,4.55,4.55-2,4.55-4.55-2-4.55-4.55-4.55h0Z"/><path class="cls-3" d="M571.29,165.72h-4.26c-.48,0-.87,.39-.87,.87v76.39c0,.48,.39,.87,.87,.87h4.26c.48,0,.87-.39,.87-.87v-76.39c0-.48-.39-.87-.87-.87h0Z"/><path class="cls-3" d="M642.83,196.27h-46.31c-.48,0-.87,.39-.87,.87v3.52c0,.48,.39,.87,.87,.87h46.31c.48,0,.87-.39,.87-.87v-3.52c0-.48-.39-.87-.87-.87h0Z"/><path class="cls-3" d="M737.07,128.57h-4.43c-.4,0-.76,.28-.85,.67-1.6,6.78-16.05,67.32-30.05,103.86-1.38,3.59-3.49,5.19-6.85,5.19s-5.47-1.6-6.85-5.19c-14-36.54-28.45-97.08-30.05-103.86-.09-.39-.44-.67-.85-.67h-4.42c-.26,0-.52,.12-.68,.33-.17,.21-.23,.48-.17,.74,4.88,21.79,16.8,67.48,29.67,104.07,2.55,7.21,6.42,10.15,13.36,10.15s10.81-2.94,13.36-10.15c12.87-36.58,24.8-82.28,29.67-104.07,.06-.26,0-.53-.17-.74-.17-.21-.42-.33-.68-.33h0Z"/><path class="cls-3" d="M764.35,139.19c-2.55,0-4.55,2-4.55,4.55s2,4.55,4.55,4.55,4.55-2,4.55-4.55-2-4.55-4.55-4.55h0Z"/><path class="cls-3" d="M766.41,165.72h-4.26c-.48,0-.87,.39-.87,.87v76.39c0,.48,.39,.87,.87,.87h4.26c.48,0,.87-.39,.87-.87v-76.39c0-.48-.39-.87-.87-.87h0Z"/><path class="cls-3" d="M827.62,238.59h-5.16c-9.5,0-14.32-6.31-14.32-18.75v-48.84h17.72c.48,0,.87-.39,.87-.87v-3.52c0-.48-.39-.87-.87-.87h-17.72v-20.95c0-.48-.39-.87-.87-.87h-4.26c-.48,0-.88,.39-.88,.87v20.95h-12.25c-.48,0-.87,.39-.87,.87v3.52c0,.48,.39,.87,.87,.87h12.25v48.84c0,15.71,7.03,24.01,20.32,24.01h5.16c.48,0,.87-.39,.87-.87v-3.52c0-.48-.39-.87-.87-.87h0Z"/><path class="cls-3" d="M900.18,202.92c-.15,24.3-8.96,37.13-25.5,37.13-12.75,0-20.66-7.41-20.66-19.33,0-12.73,9.21-20.64,24.05-20.64,8.45,0,16.27,1.01,22.11,2.84h0Zm-20.34-38.65c-10.63,0-18.88,2.2-27.58,7.35-.23,.13-.38,.36-.42,.62-.04,.26,.04,.52,.22,.71l2.8,3.1c.29,.32,.76,.38,1.12,.15,9.38-6,19.2-6.65,22.98-6.65,14.4,0,20.98,8.67,21.23,28.06-4.74-1.29-11.94-2.82-22.11-2.82-18.55,0-30.07,9.82-30.07,25.63,0,14.9,10.55,24.91,26.24,24.91,14.25,0,22.38-7.76,25.95-16.54v14.19c0,.48,.39,.87,.87,.87h4.28c.48,0,.88-.39,.88-.87v-41.15c0-25.99-8.14-37.58-26.37-37.58h0Z"/><path class="cls-3" d="M936.16,128.71h-4.26c-.48,0-.87,.39-.87,.87v113.41c0,.48,.39,.87,.87,.87h4.26c.49,0,.88-.39,.88-.87v-113.41c0-.48-.39-.87-.88-.87h0Z"/></g><path class="cls-2" d="M148.7,201.94c17.83,0,32.31,14.48,32.31,32.31s-14.48,32.31-32.31,32.31-32.31-14.48-32.31-32.31,14.48-32.31,32.31-32.31h0Z"/><path class="cls-3" d="M178.1,357.4c1.02-1.21,2.1-2.39,3.06-3.65,2.72-3.54,5.49-7.04,8.05-10.69,2.27-3.23,4.4-6.56,6.38-9.96,6.05-10.39,10.56-21.41,13.35-33.13,1.26-5.29,2.15-10.64,2.71-16.05,.82-7.88,1.02-15.78,.5-23.68-.32-4.77-.74-9.54-1.35-14.27-1.74-13.45-4.72-26.63-9-39.49-2.99-8.98-6.24-17.87-9.41-26.78-3.38-9.5-6.77-19.01-9.29-28.79-1.44-5.59-2.74-11.21-3.4-16.96-.56-4.83-.58-9.64-.03-14.48,.83-7.18,3.04-13.92,6.12-20.42,2.58-5.44,5.69-10.57,8.89-15.66,2.54-4.04,5.06-8.09,7.59-12.13,.14-.21,.31-.41,.56-.56-.8,1.8-1.55,3.62-2.4,5.4-1.96,4.13-4,8.22-5.95,12.36-1.75,3.72-3.51,7.45-5.1,11.24-2.42,5.79-4.13,11.81-4.85,18.06-.49,4.28-.43,8.57,.08,12.86,.9,7.62,3.07,14.93,5.31,22.22,3.27,10.66,7.41,21,11.3,31.44,3.52,9.44,7.08,18.88,9.78,28.6,2,7.2,3.78,14.46,4.92,21.85,.94,6.1,1.78,12.23,2.37,18.37,.64,6.68,.62,13.38,.29,20.09-.34,6.93-1.19,13.79-2.66,20.56-2.85,13.15-7.65,25.54-14.75,37-2.75,4.43-5.72,8.72-9.12,12.66-3.05,3.55-6.38,6.87-9.64,10.24-1.32,1.36-2.79,2.57-4.2,3.85-.04-.04-.08-.07-.12-.11h0Z"/><path class="cls-3" d="M115.46,373.22c-2.12-2-4.18-3.79-6.05-5.75-2.78-2.92-5.51-5.89-8.12-8.96-3.53-4.14-6.61-8.62-9.44-13.28-3.37-5.53-6.2-11.33-8.55-17.35-2.58-6.61-4.53-13.41-5.92-20.37-.97-4.86-1.62-9.75-2.06-14.69-.59-6.66-.66-13.34-.3-20.01,.23-4.22,.66-8.45,1.16-12.65,1.24-10.47,3.39-20.77,6.16-30.93,2.05-7.52,4.61-14.86,7.31-22.16,3.63-9.81,7.33-19.59,10.86-29.43,3.18-8.87,5.91-17.9,7.72-27.16,.99-5.08,1.25-10.22,.83-15.39-.58-7.05-2.44-13.78-5.24-20.23-2.29-5.29-4.85-10.47-7.27-15.71-1.89-4.09-3.74-8.21-5.6-12.31-.05-.11-.06-.25,.01-.41,.96,1.57,1.92,3.15,2.89,4.72,2.41,3.88,4.85,7.74,7.24,11.64,4.47,7.3,8.49,14.82,10.86,23.12,1.77,6.19,2.44,12.5,2.19,18.92-.23,5.77-1.37,11.39-2.64,17-1.74,7.64-3.99,15.14-6.57,22.53-2.92,8.39-5.96,16.74-8.93,25.11-3.65,10.27-7.04,20.63-9.42,31.29-1.68,7.5-3.07,15.05-4.03,22.68-1.14,9.11-1.55,18.27-1.18,27.44,.23,5.63,.86,11.22,1.79,16.79,1.3,7.72,3.32,15.23,6.09,22.55,2.56,6.78,5.71,13.29,9.46,19.49,2.26,3.74,4.65,7.42,7.19,10.97,3.03,4.22,6.29,8.27,9.57,12.56h0Z"/><path class="cls-3" d="M184.32,352.01c-1.18,1.06-2.35,2.13-3.53,3.18-.77,.69-1.55,1.37-2.45,1.94,1.99-2.4,3.99-4.79,5.98-7.18v2.06h0Z"/><path class="cls-3" d="M157.47,262.22c.46-.02,.57,0,.67-.03,2.95-.96,5.63-2.42,7.81-4.64,3.17-3.22,5.41-7.07,7.19-11.19,.78-1.8,1.36-3.64,1.21-5.65-.07-.88-.5-1.48-1.3-1.55-.63-.06-1.43,.05-1.92,.41-1.19,.87-2.37,1.82-3.33,2.92-3.13,3.58-5.39,7.74-7.33,12.05-1.1,2.44-1.96,4.98-3,7.67h0Zm-34.86-8.92c2.53,2.3,5.26,4.31,8.32,5.86,4.19,2.12,8.61,3.54,13.28,4.08,1.64,.19,3.3,.22,4.95,.36,.71,.06,1.05-.16,1.22-.91,1.24-5.7,3.42-11.04,6.26-16.12,2.07-3.71,4.39-7.26,7.48-10.22,1.92-1.84,4.04-3.35,6.72-3.93,4.83-1.05,9.59,2.46,10.03,7.38,.24,2.63-.31,5.11-1.27,7.53-1.88,4.71-4.64,8.87-8,12.61-3.1,3.45-7.04,5.61-11.46,6.9-1.28,.38-2.6,.62-4.06,.96-.83,3.46-1.74,7-2.51,10.57-1.01,4.69-2.01,9.38-2.83,14.1-.69,3.97-1.21,7.97-1.63,11.98-.43,4.04-.86,8.1-.91,12.15-.05,4.4,.21,8.81,.57,13.19,.23,2.78,.8,5.54,1.35,8.28,.69,3.45,1.85,6.77,3.42,9.92,.8,1.6,1.68,3.16,2.46,4.81-.65-.71-1.33-1.41-1.96-2.14-3.06-3.61-5.24-7.71-6.87-12.15-1.4-3.83-2.34-7.77-2.95-11.77-.85-5.56-1.14-11.16-.95-16.78,.14-3.95,.2-7.91,.6-11.83,.53-5.11,1.25-10.21,2.12-15.28,.82-4.75,1.94-9.45,2.92-14.17,.05-.22,.06-.45,.08-.67-10.84-1.29-20.06-5.41-26.37-14.7h0Z"/><g><path class="cls-1" d="M360.2,304.85h-4.5v-32.92h19.31v4.31h-14.8v9.75h12.82v4.36h-12.82v14.51Z"/><path class="cls-1" d="M383.76,275.74c-.79,0-1.44-.27-1.96-.82-.51-.54-.77-1.21-.77-2s.26-1.52,.77-2.08c.51-.56,1.16-.84,1.96-.84s1.39,.29,1.91,.87c.51,.58,.77,1.26,.77,2.05s-.26,1.46-.77,2-1.15,.82-1.91,.82Zm-2.18,29.11v-24.51h4.36v24.51h-4.36Z"/><path class="cls-1" d="M415.12,304.85h-21.56v-2.72l14.9-17.77c-5.84,.1-10.53,.15-14.06,.15v-4.16h20.43v2.81l-14.91,17.78c2.57-.07,7.64-.1,15.2-.1v4.01Z"/><path class="cls-1" d="M417.33,317.23v-3.86c.99,.2,1.75,.3,2.28,.3,2.05,0,3.27-1.07,3.66-3.22,.17-.96,.25-2.2,.25-3.71v-26.39h4.36v27.18c0,2.08-.21,3.75-.64,5-1.16,3.37-3.4,5.05-6.73,5.05-1.32,0-2.38-.12-3.17-.35Zm8.37-41.49c-.79,0-1.44-.26-1.96-.79-.51-.53-.77-1.2-.77-2.03s.26-1.52,.77-2.08c.51-.56,1.16-.84,1.96-.84s1.44,.28,1.93,.84c.5,.56,.74,1.25,.74,2.08s-.26,1.5-.77,2.03c-.51,.53-1.15,.79-1.91,.79Z"/><path class="cls-1" d="M458.29,283.24c2.33,2.39,3.49,5.47,3.49,9.23s-1.21,6.86-3.61,9.28-5.53,3.64-9.36,3.64-6.96-1.17-9.31-3.51c-2.34-2.34-3.52-5.43-3.52-9.26s1.19-6.82,3.56-9.28c2.38-2.46,5.5-3.69,9.36-3.69s7.05,1.2,9.38,3.59Zm-.96,9.28c0-2.48-.71-4.56-2.13-6.26-1.42-1.7-3.52-2.55-6.29-2.55s-4.89,.87-6.34,2.6c-1.45,1.73-2.18,3.84-2.18,6.31s.74,4.59,2.23,6.24c1.49,1.65,3.58,2.48,6.29,2.48s4.7-.87,6.19-2.6c1.49-1.73,2.23-3.8,2.23-6.21Z"/><path class="cls-1" d="M483.56,304.31c-1.65,.76-3.5,1.14-5.54,1.14-3.56,0-5.86-1.45-6.88-4.36-.46-1.29-.69-3.33-.69-6.14v-10.54h-4.01v-4.06h4.01l.1-6.39,4.21-1.34v7.72h7.58v4.06h-7.58v10.2c0,1.98,.12,3.4,.35,4.26,.43,1.65,1.68,2.48,3.76,2.48,1.58,0,3.15-.36,4.7-1.09v4.06Z"/><path class="cls-1" d="M511.14,302.47c-3.1,1.95-6.54,2.92-10.3,2.92-3.99,0-7.1-1.19-9.31-3.56-2.21-2.38-3.32-5.5-3.32-9.36,0-3.63,1.14-6.67,3.42-9.11s5.36-3.66,9.26-3.66c3.6,0,6.39,1.04,8.39,3.12,2,2.08,3,4.95,3,8.61,0,1.22-.02,2-.05,2.33h-19.6c.03,2.15,.83,3.94,2.38,5.4,1.55,1.45,3.63,2.18,6.24,2.18,1.58,0,3.05-.18,4.41-.54,1.35-.36,2.33-.71,2.92-1.04,.59-.33,1.45-.86,2.57-1.58v4.31Zm-18.27-12.43h15.2c0-1.88-.65-3.44-1.96-4.68-1.3-1.24-3.06-1.86-5.27-1.86s-4.08,.59-5.52,1.78c-1.44,1.19-2.25,2.77-2.45,4.75Z"/><path class="cls-1" d="M524.6,304.85h-4.41v-24.6h4.31v4.95c.59-1.52,1.58-2.79,2.97-3.81,1.39-1.02,3.02-1.53,4.9-1.53,2.05,0,3.76,.5,5.15,1.49l-2.23,3.96c-1.19-.92-2.56-1.39-4.11-1.39s-2.82,.61-4.01,1.83c-1.19,1.22-1.92,2.44-2.18,3.66-.26,1.32-.4,3.12-.4,5.4v10.05Z"/><path class="cls-1" d="M564.6,304.55c-1.22,.53-2.51,.79-3.86,.79-.96,0-1.8-.29-2.52-.87-.73-.58-1.14-1.56-1.24-2.95-1.95,2.54-4.75,3.81-8.42,3.81-2.51,0-4.46-.69-5.87-2.08-1.4-1.39-2.1-3.05-2.1-5,0-3.04,1.37-5.18,4.11-6.44,2.77-1.29,6.75-1.93,11.93-1.93v-.84c0-1.39-.13-2.48-.4-3.27-.5-1.32-2.03-1.98-4.6-1.98-3,0-5.99,.84-8.96,2.52v-4.21c3-1.58,6.17-2.38,9.5-2.38,4.69,0,7.46,1.55,8.32,4.65,.33,1.22,.5,3.07,.5,5.54v9.46c0,.73,.07,1.22,.2,1.49,.17,.4,.58,.59,1.24,.59,.73,0,1.45-.15,2.18-.45v3.52Zm-15.2-3.22c2.64,0,4.82-1.04,6.54-3.12,.46-.56,.69-1.52,.69-2.87v-1.83c-4.69,0-7.86,.4-9.51,1.19-1.58,.76-2.38,1.87-2.38,3.32,0,2.21,1.55,3.32,4.65,3.32Z"/><path class="cls-1" d="M575.69,316.58h-4.41v-36.34h4.21v4.21c.92-1.45,2.2-2.58,3.84-3.39,1.63-.81,3.29-1.21,4.97-1.21,3.3,0,5.88,1.02,7.75,3.07,1.86,2.05,2.8,5,2.8,8.86,0,2.38-.38,4.46-1.14,6.26-.76,1.8-1.79,3.21-3.09,4.23-1.3,1.02-2.72,1.79-4.26,2.3-1.53,.51-3.16,.77-4.88,.77s-3.61-.26-5.79-.79v12.03Zm0-16.29c1.71,.69,3.58,1.04,5.59,1.04,2.64,0,4.82-.75,6.54-2.25,1.71-1.5,2.57-3.8,2.57-6.91,0-5.51-2.46-8.27-7.38-8.27-1.19,0-2.33,.29-3.44,.87-1.11,.58-2,1.33-2.7,2.25-.79,1.06-1.19,2.43-1.19,4.11v9.16Z"/><path class="cls-1" d="M605.15,275.74c-.79,0-1.44-.27-1.96-.82-.51-.54-.77-1.21-.77-2s.26-1.52,.77-2.08c.51-.56,1.16-.84,1.96-.84s1.39,.29,1.91,.87c.51,.58,.77,1.26,.77,2.05s-.26,1.46-.77,2-1.15,.82-1.91,.82Zm-2.18,29.11v-24.51h4.36v24.51h-4.36Z"/><path class="cls-1" d="M639.16,304.55c-1.22,.53-2.51,.79-3.86,.79-.96,0-1.8-.29-2.52-.87-.73-.58-1.14-1.56-1.24-2.95-1.95,2.54-4.75,3.81-8.42,3.81-2.51,0-4.46-.69-5.87-2.08-1.4-1.39-2.1-3.05-2.1-5,0-3.04,1.37-5.18,4.11-6.44,2.77-1.29,6.75-1.93,11.93-1.93v-.84c0-1.39-.13-2.48-.4-3.27-.5-1.32-2.03-1.98-4.6-1.98-3,0-5.99,.84-8.96,2.52v-4.21c3-1.58,6.17-2.38,9.5-2.38,4.69,0,7.46,1.55,8.32,4.65,.33,1.22,.5,3.07,.5,5.54v9.46c0,.73,.07,1.22,.2,1.49,.17,.4,.58,.59,1.24,.59,.73,0,1.45-.15,2.18-.45v3.52Zm-15.2-3.22c2.64,0,4.82-1.04,6.54-3.12,.46-.56,.69-1.52,.69-2.87v-1.83c-4.69,0-7.86,.4-9.51,1.19-1.58,.76-2.38,1.87-2.38,3.32,0,2.21,1.55,3.32,4.65,3.32Z"/><path class="cls-1" d="M686.14,304.85h-6.09l-14.36-16.01v16.01h-4.55v-32.92h4.55v14.82l13.71-14.82h5.5l-14.51,15.44,15.74,17.48Z"/><path class="cls-1" d="M712.16,283.24c2.33,2.39,3.49,5.47,3.49,9.23s-1.21,6.86-3.61,9.28-5.53,3.64-9.36,3.64-6.96-1.17-9.31-3.51c-2.34-2.34-3.52-5.43-3.52-9.26s1.19-6.82,3.56-9.28c2.38-2.46,5.5-3.69,9.36-3.69s7.05,1.2,9.38,3.59Zm-.96,9.28c0-2.48-.71-4.56-2.13-6.26-1.42-1.7-3.52-2.55-6.29-2.55s-4.89,.87-6.34,2.6c-1.45,1.73-2.18,3.84-2.18,6.31s.74,4.59,2.23,6.24c1.49,1.65,3.58,2.48,6.29,2.48s4.7-.87,6.19-2.6c1.49-1.73,2.23-3.8,2.23-6.21Z"/><path class="cls-1" d="M723.71,303.61v-35.25h4.31v16.34c.83-1.49,2.05-2.67,3.66-3.54,1.62-.87,3.33-1.31,5.15-1.31,3.33,0,5.91,1.05,7.72,3.14,1.81,2.1,2.72,5.04,2.72,8.84,0,2.44-.4,4.57-1.19,6.39-.79,1.82-1.86,3.23-3.22,4.23-1.35,1.01-2.81,1.74-4.38,2.2-1.57,.46-3.24,.69-5.03,.69-3.04,0-6.29-.58-9.75-1.73Zm4.41-3.37c1.71,.69,3.63,1.04,5.74,1.04,2.64,0,4.79-.74,6.46-2.23,1.67-1.49,2.5-3.79,2.5-6.93,0-2.67-.63-4.7-1.88-6.09-1.25-1.39-3.05-2.08-5.4-2.08-2.48,0-4.57,1.16-6.29,3.47-.76,1.06-1.14,2.56-1.14,4.51v8.32Z"/><path class="cls-1" d="M757.53,275.74c-.79,0-1.44-.27-1.96-.82-.51-.54-.77-1.21-.77-2s.26-1.52,.77-2.08c.51-.56,1.16-.84,1.96-.84s1.39,.29,1.91,.87c.51,.58,.77,1.26,.77,2.05s-.26,1.46-.77,2-1.15,.82-1.91,.82Zm-2.18,29.11v-24.51h4.36v24.51h-4.36Z"/><path class="cls-1" d="M790.5,302.47c-3.1,1.95-6.54,2.92-10.3,2.92-3.99,0-7.1-1.19-9.31-3.56-2.21-2.38-3.32-5.5-3.32-9.36,0-3.63,1.14-6.67,3.42-9.11s5.36-3.66,9.26-3.66c3.6,0,6.39,1.04,8.39,3.12,2,2.08,3,4.95,3,8.61,0,1.22-.02,2-.05,2.33h-19.6c.03,2.15,.83,3.94,2.38,5.4,1.55,1.45,3.63,2.18,6.24,2.18,1.58,0,3.05-.18,4.41-.54,1.35-.36,2.33-.71,2.92-1.04,.59-.33,1.45-.86,2.57-1.58v4.31Zm-18.27-12.43h15.2c0-1.88-.65-3.44-1.96-4.68-1.3-1.24-3.06-1.86-5.27-1.86s-4.08,.59-5.52,1.78c-1.44,1.19-2.25,2.77-2.45,4.75Z"/><path class="cls-1" d="M818.02,303.22c-2.41,1.45-5.13,2.18-8.17,2.18-3.93,0-6.94-1.16-9.04-3.49-2.1-2.33-3.14-5.44-3.14-9.33s1.18-7.06,3.54-9.41c2.36-2.34,5.45-3.52,9.28-3.52,2.64,0,4.98,.46,7.03,1.39v4.36c-2.31-1.12-4.55-1.68-6.73-1.68-2.9,0-5.07,.85-6.51,2.55-1.44,1.7-2.15,3.77-2.15,6.21,0,2.77,.71,4.94,2.13,6.51,1.42,1.57,3.5,2.35,6.24,2.35s5.18-.79,7.53-2.38v4.26Z"/><path class="cls-1" d="M848.27,304.55c-1.22,.53-2.51,.79-3.86,.79-.96,0-1.8-.29-2.52-.87-.73-.58-1.14-1.56-1.24-2.95-1.95,2.54-4.75,3.81-8.42,3.81-2.51,0-4.46-.69-5.87-2.08-1.4-1.39-2.1-3.05-2.1-5,0-3.04,1.37-5.18,4.11-6.44,2.77-1.29,6.75-1.93,11.93-1.93v-.84c0-1.39-.13-2.48-.4-3.27-.5-1.32-2.03-1.98-4.6-1.98-3,0-5.99,.84-8.96,2.52v-4.21c3-1.58,6.17-2.38,9.5-2.38,4.69,0,7.46,1.55,8.32,4.65,.33,1.22,.5,3.07,.5,5.54v9.46c0,.73,.07,1.22,.2,1.49,.17,.4,.58,.59,1.24,.59,.73,0,1.45-.15,2.18-.45v3.52Zm-15.2-3.22c2.64,0,4.82-1.04,6.54-3.12,.46-.56,.69-1.52,.69-2.87v-1.83c-4.69,0-7.86,.4-9.51,1.19-1.58,.76-2.38,1.87-2.38,3.32,0,2.21,1.55,3.32,4.65,3.32Z"/></g></svg>